<svg width="117" height="25" viewBox="0 0 117 25" fill="none" xmlns="http://www.w3.org/2000/svg">
<rect y="12.5299" width="3.38734" height="3.38733" transform="rotate(-45 0 12.5299)" fill="#40A9FF"/>
<rect x="7.59375" y="12.5147" width="3.38733" height="3.38733" transform="rotate(-45 7.59375 12.5147)" fill="#40A9FF"/>
<rect x="15.2096" y="12.4102" width="3.38733" height="3.38733" transform="rotate(-45 15.2096 12.4102)" fill="#40A9FF"/>
<path d="M14.0718 13.6677L16.467 16.0629L9.99998 22.5299L3.65267 16.1826L6.04788 13.7874L9.99998 17.7395L14.0718 13.6677Z" fill="#40A9FF"/>
<path d="M5.98798 11.3323L3.59277 8.93713L10.0598 2.47006L16.4071 8.81737L14.0119 11.2126L10.0598 7.26048L5.98798 11.3323Z" fill="#40A9FF"/>
<path d="M28.3301 18.1602C28.3301 17.9258 28.3691 17.7077 28.4473 17.5059C28.5254 17.304 28.61 17.1152 28.7012 16.9395C28.7142 16.9134 28.7337 16.8743 28.7598 16.8223C28.7923 16.7637 28.8477 16.6465 28.9258 16.4707C29.0039 16.2884 29.1113 16.0182 29.248 15.6602C29.3913 15.3021 29.5801 14.804 29.8145 14.166C29.8079 14.0879 29.8014 14.013 29.7949 13.9414C29.7949 13.8698 29.7949 13.8014 29.7949 13.7363C29.7949 13.4694 29.8372 13.2448 29.9219 13.0625C30.013 12.8737 30.1823 12.6914 30.4297 12.5156L32.9102 7.33984C33.0078 7.13802 33.1152 6.92318 33.2324 6.69531C33.3496 6.46094 33.4798 6.24609 33.623 6.05078C33.7728 5.84896 33.9355 5.68294 34.1113 5.55273C34.2936 5.41602 34.4922 5.34766 34.707 5.34766C34.8698 5.34766 35.0521 5.44531 35.2539 5.64062C35.4557 5.82943 35.6608 6.07682 35.8691 6.38281C36.084 6.68229 36.2956 7.01758 36.5039 7.38867C36.7188 7.75326 36.9141 8.10807 37.0898 8.45312C37.2721 8.79818 37.4316 9.11393 37.5684 9.40039C37.7051 9.68034 37.8027 9.88542 37.8613 10.0156C38.1868 10.7448 38.431 11.3014 38.5938 11.6855C38.7565 12.0632 38.8835 12.304 38.9746 12.4082C39.2741 12.597 39.4824 12.8184 39.5996 13.0723C39.7168 13.3197 39.7754 13.6452 39.7754 14.0488C39.9577 14.5111 40.1204 14.9766 40.2637 15.4453C40.4134 15.9076 40.5762 16.334 40.752 16.7246C40.8822 17.0111 41.0156 17.2487 41.1523 17.4375C41.2891 17.6198 41.4095 17.7956 41.5137 17.9648C41.6243 18.1276 41.7122 18.3001 41.7773 18.4824C41.849 18.6582 41.8848 18.8861 41.8848 19.166C41.8848 19.3548 41.8392 19.498 41.748 19.5957C41.6569 19.6999 41.5462 19.7747 41.416 19.8203C41.2923 19.8724 41.1654 19.9017 41.0352 19.9082C40.9049 19.9147 40.8008 19.918 40.7227 19.918C40.5208 19.918 40.319 19.804 40.1172 19.5762C39.9154 19.3483 39.7266 19.0781 39.5508 18.7656C39.375 18.4466 39.2188 18.1211 39.082 17.7891C38.9518 17.457 38.8574 17.1836 38.7988 16.9688C38.7272 16.7279 38.6523 16.474 38.5742 16.207C38.5026 15.9401 38.431 15.6927 38.3594 15.4648C38.2878 15.2305 38.2129 15.0319 38.1348 14.8691C38.0632 14.7064 37.9915 14.6055 37.9199 14.5664C37.8158 14.4753 37.6986 14.4167 37.5684 14.3906C37.4382 14.3581 37.2656 14.3418 37.0508 14.3418C36.6797 14.3418 36.3053 14.3418 35.9277 14.3418C35.5501 14.3353 35.1628 14.332 34.7656 14.332C34.3685 14.3255 33.9551 14.3223 33.5254 14.3223C33.1022 14.3158 32.653 14.3125 32.1777 14.3125C32.0475 14.3125 31.9401 14.3255 31.8555 14.3516C31.7773 14.3711 31.7025 14.4232 31.6309 14.5078C31.5658 14.5859 31.4974 14.7031 31.4258 14.8594C31.3607 15.0156 31.2826 15.2305 31.1914 15.5039L30.4102 17.6035C30.3516 17.8118 30.2962 18.0072 30.2441 18.1895C30.1921 18.3652 30.1432 18.4889 30.0977 18.5605C30.0391 18.6582 29.974 18.7363 29.9023 18.7949C29.8372 18.847 29.7689 18.8861 29.6973 18.9121C29.6257 18.9382 29.5508 18.9544 29.4727 18.9609C29.3945 18.9609 29.3164 18.9609 29.2383 18.9609C28.9583 18.9609 28.737 18.9056 28.5742 18.7949C28.4115 18.6777 28.3301 18.4661 28.3301 18.1602ZM32.373 12.5352C32.9915 12.5417 33.4993 12.5482 33.8965 12.5547C34.3001 12.5612 34.6289 12.5677 34.8828 12.5742C35.1367 12.5807 35.3353 12.5872 35.4785 12.5938C35.6217 12.5938 35.7487 12.5938 35.8594 12.5938C35.9375 12.5938 36.0124 12.5938 36.084 12.5938C36.1556 12.5872 36.237 12.584 36.3281 12.584C36.4258 12.5775 36.5365 12.571 36.6602 12.5645C36.7904 12.5579 36.9466 12.5482 37.1289 12.5352C37.0378 12.2747 36.8978 11.946 36.709 11.5488C36.5267 11.1517 36.3249 10.7415 36.1035 10.3184C35.8887 9.88867 35.6738 9.47201 35.459 9.06836C35.2441 8.66471 35.0651 8.32292 34.9219 8.04297C34.7917 7.79557 34.6875 7.67188 34.6094 7.67188C34.5703 7.67188 34.4954 7.76953 34.3848 7.96484C34.2741 8.15365 34.1439 8.39779 33.9941 8.69727C33.8509 8.99674 33.6979 9.33529 33.5352 9.71289C33.3724 10.084 33.2129 10.4486 33.0566 10.8066C32.9069 11.1647 32.7702 11.5 32.6465 11.8125C32.5228 12.1185 32.4316 12.3594 32.373 12.5352ZM44.1113 13.3652C44.1113 13.1634 44.1178 12.9355 44.1309 12.6816C44.1439 12.4277 44.1634 12.1641 44.1895 11.8906C44.2155 11.6172 44.2448 11.3405 44.2773 11.0605C44.3164 10.7741 44.3587 10.5007 44.4043 10.2402C44.4499 9.97331 44.4987 9.72917 44.5508 9.50781C44.6094 9.27995 44.668 9.08464 44.7266 8.92188C44.7982 8.74609 44.9121 8.60286 45.0684 8.49219C45.2246 8.375 45.4329 8.31641 45.6934 8.31641C45.9277 8.31641 46.1133 8.40104 46.25 8.57031C46.3932 8.73958 46.4648 8.94141 46.4648 9.17578C46.4648 9.21484 46.4323 9.33854 46.3672 9.54688C46.3086 9.7487 46.2402 10.0221 46.1621 10.3672C46.0905 10.7057 46.0221 11.1094 45.957 11.5781C45.8984 12.0404 45.8691 12.5482 45.8691 13.1016C45.8691 13.3164 45.8789 13.5801 45.8984 13.8926C45.9245 14.2051 45.9701 14.5339 46.0352 14.8789C46.1003 15.2174 46.1914 15.5592 46.3086 15.9043C46.4258 16.2428 46.582 16.5488 46.7773 16.8223C46.9792 17.0957 47.2233 17.3171 47.5098 17.4863C47.7962 17.6556 48.138 17.7402 48.5352 17.7402C48.8737 17.7402 49.1862 17.6882 49.4727 17.584C49.7591 17.4798 50.0195 17.3464 50.2539 17.1836C50.4948 17.0143 50.7096 16.8255 50.8984 16.6172C51.0938 16.4089 51.2663 16.2005 51.416 15.9922C51.5723 15.7839 51.7057 15.5885 51.8164 15.4062C51.9336 15.224 52.0345 15.071 52.1191 14.9473C52.1582 14.5697 52.1875 14.2376 52.207 13.9512C52.2266 13.6582 52.2396 13.3913 52.2461 13.1504C52.2591 12.9095 52.2656 12.6849 52.2656 12.4766C52.2721 12.2617 52.2754 12.0436 52.2754 11.8223C52.2754 11.5944 52.2721 11.3535 52.2656 11.0996C52.2656 10.8392 52.2656 10.543 52.2656 10.2109V9.04883C52.2656 8.91211 52.2949 8.79818 52.3535 8.70703C52.4186 8.61589 52.4967 8.54102 52.5879 8.48242C52.679 8.42383 52.7799 8.38477 52.8906 8.36523C53.0013 8.33919 53.1022 8.32617 53.1934 8.32617C53.2715 8.32617 53.3561 8.33919 53.4473 8.36523C53.5384 8.39128 53.623 8.43034 53.7012 8.48242C53.7793 8.53451 53.8444 8.60612 53.8965 8.69727C53.9486 8.7819 53.9746 8.88281 53.9746 9L53.9551 18.2676C53.9551 18.5996 53.89 18.8242 53.7598 18.9414C53.6296 19.0521 53.431 19.1074 53.1641 19.1074C52.9232 19.1074 52.7344 19.0879 52.5977 19.0488C52.4674 19.0163 52.3698 18.9512 52.3047 18.8535C52.2461 18.7559 52.2103 18.6224 52.1973 18.4531C52.1842 18.2839 52.1777 18.0658 52.1777 17.7988V17.1348C52.0085 17.4408 51.8164 17.7337 51.6016 18.0137C51.3932 18.2871 51.1491 18.528 50.8691 18.7363C50.5892 18.9447 50.2669 19.1107 49.9023 19.2344C49.5378 19.3581 49.1211 19.4199 48.6523 19.4199C47.9753 19.4199 47.3926 19.3158 46.9043 19.1074C46.4225 18.9056 46.0124 18.6387 45.6738 18.3066C45.3418 17.9681 45.0716 17.584 44.8633 17.1543C44.6615 16.7246 44.502 16.2852 44.3848 15.8359C44.2741 15.3867 44.1992 14.9473 44.1602 14.5176C44.1276 14.0879 44.1113 13.7038 44.1113 13.3652ZM56.9629 14.8984C56.9629 14 57.0931 13.1569 57.3535 12.3691C57.6139 11.5749 57.998 10.8815 58.5059 10.2891C59.0137 9.6901 59.6419 9.2181 60.3906 8.87305C61.1393 8.52799 61.9987 8.35547 62.9688 8.35547C63.151 8.35547 63.3594 8.38802 63.5938 8.45312C63.8281 8.51823 64.0658 8.61263 64.3066 8.73633C64.5475 8.86003 64.7852 9.00977 65.0195 9.18555C65.2539 9.35482 65.4622 9.54688 65.6445 9.76172C65.8268 9.97005 65.9733 10.1979 66.084 10.4453C66.1947 10.6927 66.25 10.9499 66.25 11.2168C66.25 11.2949 66.2337 11.3926 66.2012 11.5098C66.1686 11.627 66.123 11.7376 66.0645 11.8418C66.0124 11.946 65.9473 12.0306 65.8691 12.0957C65.791 12.1608 65.7031 12.1868 65.6055 12.1738C65.5143 12.1543 65.4134 12.0827 65.3027 11.959C65.1921 11.8353 65.0781 11.6302 64.9609 11.3438C64.8698 11.1354 64.7396 10.9564 64.5703 10.8066C64.4076 10.6569 64.2188 10.5365 64.0039 10.4453C63.7891 10.3477 63.5579 10.276 63.3105 10.2305C63.0697 10.1849 62.8288 10.1621 62.5879 10.1621C61.9954 10.1621 61.4616 10.2826 60.9863 10.5234C60.5176 10.7643 60.1172 11.0833 59.7852 11.4805C59.4531 11.8711 59.1992 12.3171 59.0234 12.8184C58.8477 13.3197 58.7598 13.8275 58.7598 14.3418C58.7598 14.9733 58.8542 15.4909 59.043 15.8945C59.2318 16.2917 59.4987 16.6074 59.8438 16.8418C60.1953 17.0697 60.612 17.2259 61.0938 17.3105C61.582 17.3952 62.1224 17.4375 62.7148 17.4375C62.8906 17.4375 63.0599 17.444 63.2227 17.457C63.3919 17.4635 63.5547 17.4668 63.7109 17.4668C63.8737 17.4603 64.0365 17.444 64.1992 17.418C64.362 17.3919 64.5312 17.3431 64.707 17.2715C64.8503 17.2064 64.9837 17.1445 65.1074 17.0859C65.2181 17.0404 65.3255 16.998 65.4297 16.959C65.5339 16.9199 65.612 16.9004 65.6641 16.9004C65.7292 16.9004 65.8203 16.9199 65.9375 16.959C66.0547 16.998 66.1686 17.0632 66.2793 17.1543C66.3965 17.2454 66.4974 17.3659 66.582 17.5156C66.6667 17.6589 66.709 17.8379 66.709 18.0527C66.709 18.1634 66.6699 18.2773 66.5918 18.3945C66.5202 18.5052 66.4258 18.6094 66.3086 18.707C66.1979 18.7982 66.0807 18.873 65.957 18.9316C65.8333 18.9902 65.7227 19.0195 65.625 19.0195H64.8535C64.3978 19.0195 63.9518 19.0391 63.5156 19.0781C63.0859 19.1172 62.6367 19.1367 62.168 19.1367C61.4714 19.1367 60.8073 19.0716 60.1758 18.9414C59.5443 18.8047 58.9909 18.5736 58.5156 18.248C58.0404 17.9225 57.6628 17.4896 57.3828 16.9492C57.1029 16.4023 56.9629 15.7188 56.9629 14.8984ZM75 19.1465C74.3555 19.1465 73.8216 19.0195 73.3984 18.7656C72.9753 18.5052 72.6335 18.1602 72.373 17.7305C72.1126 17.2943 71.9173 16.7995 71.7871 16.2461C71.6569 15.6862 71.5658 15.1068 71.5137 14.5078C71.4616 13.9023 71.4323 13.3001 71.4258 12.7012C71.4193 12.1022 71.4095 11.5488 71.3965 11.041C71.2207 11.041 71.0612 11.041 70.918 11.041C70.7812 11.041 70.6445 11.0443 70.5078 11.0508C70.4297 11.0573 70.3581 11.0638 70.293 11.0703C70.2279 11.0703 70.1562 11.0736 70.0781 11.0801C70.0065 11.0801 69.9219 11.0833 69.8242 11.0898C69.7331 11.0898 69.6191 11.0898 69.4824 11.0898C69.4043 11.0898 69.3001 11.0703 69.1699 11.0312C69.0397 10.9922 68.9095 10.9368 68.7793 10.8652C68.6491 10.7936 68.5352 10.7057 68.4375 10.6016C68.3464 10.4909 68.3008 10.3672 68.3008 10.2305C68.3008 10.0938 68.3301 9.9668 68.3887 9.84961C68.4473 9.73242 68.5254 9.63477 68.623 9.55664C68.7272 9.47201 68.8477 9.4069 68.9844 9.36133C69.1211 9.31576 69.2643 9.29297 69.4141 9.29297L71.4648 9.3418C71.4844 9.17904 71.5039 9.01628 71.5234 8.85352C71.543 8.69076 71.5592 8.53125 71.5723 8.375C71.5918 8.1862 71.6048 8.01042 71.6113 7.84766C71.6178 7.6849 71.6276 7.52865 71.6406 7.37891C71.6536 7.22266 71.6667 7.06966 71.6797 6.91992C71.6992 6.76367 71.7285 6.60091 71.7676 6.43164C71.7871 6.32096 71.8327 6.21354 71.9043 6.10938C71.9759 5.9987 72.0573 5.90104 72.1484 5.81641C72.2461 5.73177 72.347 5.66341 72.4512 5.61133C72.5618 5.55924 72.666 5.5332 72.7637 5.5332C72.8418 5.5332 72.9232 5.55273 73.0078 5.5918C73.0924 5.63086 73.1706 5.68945 73.2422 5.76758C73.3138 5.83919 73.3724 5.92708 73.418 6.03125C73.4701 6.12891 73.4961 6.23958 73.4961 6.36328C73.4961 6.6237 73.4928 6.8418 73.4863 7.01758C73.4863 7.19336 73.4798 7.3431 73.4668 7.4668C73.4603 7.59049 73.4505 7.69792 73.4375 7.78906C73.4245 7.88021 73.4115 7.97135 73.3984 8.0625C73.3854 8.13411 73.3724 8.21224 73.3594 8.29688C73.3529 8.375 73.3431 8.46615 73.3301 8.57031C73.3236 8.67448 73.3138 8.79492 73.3008 8.93164C73.2878 9.06185 73.2715 9.2181 73.252 9.40039C73.623 9.39388 73.9746 9.38737 74.3066 9.38086C74.6452 9.36784 74.9772 9.35807 75.3027 9.35156C75.6283 9.33854 75.9603 9.32878 76.2988 9.32227C76.6374 9.31576 76.9987 9.3125 77.3828 9.3125C77.513 9.3125 77.627 9.34831 77.7246 9.41992C77.8288 9.48503 77.9134 9.56641 77.9785 9.66406C78.0501 9.76172 78.1022 9.86589 78.1348 9.97656C78.1738 10.0807 78.1934 10.1719 78.1934 10.25C78.1934 10.3867 78.1641 10.5104 78.1055 10.6211C78.0469 10.7253 77.9753 10.8132 77.8906 10.8848C77.806 10.9564 77.7116 11.0085 77.6074 11.041C77.5033 11.0736 77.4089 11.0898 77.3242 11.0898L73.3301 11.0215C73.304 11.0475 73.291 11.0768 73.291 11.1094C73.291 11.4544 73.2845 11.8516 73.2715 12.3008C73.2585 12.7435 73.2552 13.196 73.2617 13.6582C73.2747 14.1204 73.304 14.5762 73.3496 15.0254C73.3952 15.4681 73.4766 15.8652 73.5938 16.2168C73.7174 16.5618 73.8835 16.8418 74.0918 17.0566C74.3001 17.2715 74.5736 17.3789 74.9121 17.3789C75.0228 17.3789 75.153 17.3594 75.3027 17.3203C75.459 17.2747 75.612 17.2227 75.7617 17.1641C75.9115 17.1055 76.0514 17.0404 76.1816 16.9688C76.3118 16.8971 76.4128 16.832 76.4844 16.7734C76.556 16.7083 76.6504 16.6497 76.7676 16.5977C76.8848 16.5456 76.9824 16.5195 77.0605 16.5195C77.3079 16.5195 77.4642 16.5814 77.5293 16.7051C77.6009 16.8223 77.6367 16.985 77.6367 17.1934C77.6367 17.265 77.6204 17.3529 77.5879 17.457C77.5553 17.5547 77.513 17.6361 77.4609 17.7012C77.3372 17.8574 77.1745 18.0234 76.9727 18.1992C76.7773 18.3685 76.5658 18.5247 76.3379 18.668C76.11 18.8047 75.8789 18.9186 75.6445 19.0098C75.4102 19.1009 75.1953 19.1465 75 19.1465ZM82.9102 6.1875C82.7995 6.1875 82.64 6.16146 82.4316 6.10938C82.2298 6.05078 82.028 5.96615 81.8262 5.85547C81.6309 5.74479 81.4583 5.60482 81.3086 5.43555C81.1654 5.26628 81.0938 5.06771 81.0938 4.83984C81.0938 4.72917 81.1165 4.61523 81.1621 4.49805C81.2077 4.38086 81.2695 4.27344 81.3477 4.17578C81.4323 4.07812 81.5332 4 81.6504 3.94141C81.7676 3.8763 81.8978 3.84375 82.041 3.84375C82.1647 3.84375 82.3177 3.89258 82.5 3.99023C82.6888 4.08789 82.8678 4.21484 83.0371 4.37109C83.2064 4.52083 83.3529 4.6901 83.4766 4.87891C83.6003 5.0612 83.6621 5.24023 83.6621 5.41602C83.6621 5.46159 83.6458 5.52669 83.6133 5.61133C83.5872 5.69596 83.5417 5.7806 83.4766 5.86523C83.418 5.94987 83.3398 6.02474 83.2422 6.08984C83.151 6.15495 83.0404 6.1875 82.9102 6.1875ZM81.5527 18.3066C81.5397 18.2546 81.5234 18.1536 81.5039 18.0039C81.4909 17.8542 81.4746 17.6068 81.4551 17.2617C81.4421 16.9167 81.429 16.4512 81.416 15.8652C81.4095 15.2728 81.4062 14.5111 81.4062 13.5801C81.4062 12.8509 81.4486 12.1055 81.5332 11.3438C81.6243 10.5755 81.735 9.84961 81.8652 9.16602C81.8717 9.10742 81.8945 9.0293 81.9336 8.93164C81.9792 8.82747 82.0378 8.72656 82.1094 8.62891C82.1875 8.52474 82.2786 8.43685 82.3828 8.36523C82.487 8.28711 82.6074 8.24805 82.7441 8.24805C82.8874 8.24805 83.0046 8.27409 83.0957 8.32617C83.1868 8.37174 83.2552 8.4401 83.3008 8.53125C83.3529 8.61589 83.3887 8.7168 83.4082 8.83398C83.4277 8.94466 83.4375 9.06185 83.4375 9.18555C83.4375 9.5306 83.4245 9.91146 83.3984 10.3281C83.3724 10.7383 83.3431 11.1582 83.3105 11.5879C83.2845 12.0111 83.2585 12.4277 83.2324 12.8379C83.2129 13.248 83.2031 13.6191 83.2031 13.9512C83.2031 14.2441 83.2227 14.5762 83.2617 14.9473C83.3073 15.3184 83.3561 15.6992 83.4082 16.0898C83.4668 16.4805 83.5156 16.8646 83.5547 17.2422C83.6003 17.6133 83.623 17.9518 83.623 18.2578C83.623 18.5768 83.5417 18.8242 83.3789 19C83.2161 19.1693 83.0339 19.2539 82.832 19.2539C82.4414 19.2539 82.1484 19.1823 81.9531 19.0391C81.7578 18.9023 81.6243 18.6582 81.5527 18.3066ZM86.6895 13.8047C86.6895 12.7956 86.8522 11.9395 87.1777 11.2363C87.5033 10.5332 87.9297 9.96354 88.457 9.52734C88.9909 9.08464 89.5931 8.76562 90.2637 8.57031C90.9408 8.36849 91.6309 8.26758 92.334 8.26758C93.1478 8.26758 93.877 8.40104 94.5215 8.66797C95.1725 8.9349 95.7227 9.31901 96.1719 9.82031C96.6211 10.3216 96.9661 10.9303 97.207 11.6465C97.4479 12.3561 97.5684 13.1536 97.5684 14.0391C97.5684 14.5534 97.5 15.0384 97.3633 15.4941C97.2266 15.9499 97.0378 16.373 96.7969 16.7637C96.556 17.1478 96.2663 17.4928 95.9277 17.7988C95.5957 18.1048 95.2311 18.3685 94.834 18.5898C94.4368 18.8047 94.0169 18.9674 93.5742 19.0781C93.1315 19.1953 92.6823 19.2539 92.2266 19.2539C91.7318 19.2539 91.25 19.1758 90.7812 19.0195C90.319 18.8698 89.8828 18.6615 89.4727 18.3945C89.0625 18.1276 88.6849 17.8184 88.3398 17.4668C88.0013 17.1087 87.7083 16.7279 87.4609 16.3242C87.2201 15.9206 87.0312 15.5039 86.8945 15.0742C86.7578 14.6445 86.6895 14.2214 86.6895 13.8047ZM88.3789 13.5605C88.3789 14.0423 88.4831 14.5273 88.6914 15.0156C88.8997 15.4974 89.1732 15.9336 89.5117 16.3242C89.8568 16.7148 90.2474 17.0339 90.6836 17.2812C91.1263 17.5221 91.5755 17.6426 92.0312 17.6426C92.526 17.6426 93.0046 17.5579 93.4668 17.3887C93.9355 17.2194 94.3457 16.972 94.6973 16.6465C95.0553 16.321 95.3418 15.9238 95.5566 15.4551C95.7715 14.9863 95.8789 14.4525 95.8789 13.8535C95.8789 13.2676 95.7975 12.7337 95.6348 12.252C95.4785 11.7637 95.2604 11.3438 94.9805 10.9922C94.7005 10.6406 94.3652 10.3704 93.9746 10.1816C93.584 9.98633 93.1608 9.88867 92.7051 9.88867C92.1973 9.88867 91.6862 9.97005 91.1719 10.1328C90.6576 10.2891 90.1921 10.5234 89.7754 10.8359C89.3652 11.1419 89.0299 11.5228 88.7695 11.9785C88.5091 12.4342 88.3789 12.9616 88.3789 13.5605ZM100.801 18.1211C100.801 18.0234 100.804 17.89 100.811 17.7207C100.817 17.5514 100.82 17.3301 100.82 17.0566C100.82 16.6139 100.807 16.1484 100.781 15.6602C100.755 15.1654 100.726 14.6543 100.693 14.127C100.667 13.5931 100.641 13.0462 100.615 12.4863C100.596 11.9199 100.586 11.3405 100.586 10.748C100.586 10.5202 100.596 10.2663 100.615 9.98633C100.635 9.69987 100.674 9.4362 100.732 9.19531C100.791 8.94792 100.876 8.74284 100.986 8.58008C101.097 8.41081 101.247 8.32617 101.436 8.32617C101.637 8.32617 101.794 8.39128 101.904 8.52148C102.021 8.64518 102.106 8.80794 102.158 9.00977C102.217 9.20508 102.249 9.42969 102.256 9.68359C102.269 9.93099 102.275 10.1816 102.275 10.4355C102.503 10.1035 102.793 9.80404 103.145 9.53711C103.496 9.26367 103.87 9.03255 104.268 8.84375C104.671 8.65495 105.078 8.50846 105.488 8.4043C105.898 8.30013 106.279 8.24805 106.631 8.24805C107.269 8.24805 107.829 8.34245 108.311 8.53125C108.799 8.71354 109.219 8.96419 109.57 9.2832C109.928 9.60221 110.225 9.97331 110.459 10.3965C110.7 10.8132 110.892 11.2559 111.035 11.7246C111.178 12.1934 111.279 12.6751 111.338 13.1699C111.403 13.6582 111.436 14.1302 111.436 14.5859V16.2461C111.436 16.6693 111.406 17.0794 111.348 17.4766C111.296 17.8672 111.217 18.2155 111.113 18.5215C111.009 18.821 110.879 19.0618 110.723 19.2441C110.573 19.4329 110.4 19.5273 110.205 19.5273C110.062 19.5273 109.928 19.5176 109.805 19.498C109.681 19.4785 109.57 19.4297 109.473 19.3516C109.382 19.2799 109.31 19.166 109.258 19.0098C109.206 18.8535 109.18 18.6387 109.18 18.3652C109.18 18.1113 109.206 17.8477 109.258 17.5742C109.31 17.2943 109.365 17.0143 109.424 16.7344C109.489 16.4544 109.548 16.1745 109.6 15.8945C109.652 15.6146 109.678 15.3379 109.678 15.0645C109.678 14.7585 109.668 14.4557 109.648 14.1562C109.635 13.8503 109.603 13.5508 109.551 13.2578C109.499 12.9648 109.424 12.6816 109.326 12.4082C109.235 12.1283 109.108 11.8613 108.945 11.6074C108.815 11.3991 108.678 11.1973 108.535 11.002C108.398 10.8001 108.229 10.6211 108.027 10.4648C107.832 10.3086 107.594 10.1849 107.314 10.0938C107.035 9.99609 106.689 9.94727 106.279 9.94727C105.999 9.94727 105.68 10.0059 105.322 10.123C104.964 10.2337 104.603 10.3965 104.238 10.6113C103.88 10.8197 103.535 11.0736 103.203 11.373C102.878 11.666 102.604 11.9948 102.383 12.3594V14.8594C102.383 14.944 102.386 15.0547 102.393 15.1914C102.406 15.3216 102.422 15.4681 102.441 15.6309C102.461 15.7936 102.484 15.9661 102.51 16.1484C102.542 16.3307 102.575 16.5098 102.607 16.6855C102.66 16.959 102.721 17.2194 102.793 17.4668C102.865 17.7142 102.9 17.9453 102.9 18.1602C102.9 18.3099 102.894 18.4531 102.881 18.5898C102.868 18.7266 102.832 18.847 102.773 18.9512C102.721 19.0488 102.637 19.127 102.52 19.1855C102.402 19.2441 102.24 19.2734 102.031 19.2734C101.895 19.2734 101.755 19.2604 101.611 19.2344C101.468 19.2148 101.335 19.166 101.211 19.0879C101.094 19.0098 100.996 18.8958 100.918 18.7461C100.84 18.5898 100.801 18.3815 100.801 18.1211Z" fill="#1890FF"/>
</svg>
